# xmcd
#
# Track frame offsets: 
#        150
#        40235
#        70108
#        101600
#        124806
#        149929
#        169182
#        193584
#        214014
#        233399
#        254889
#        278920
#        308475
#        332556
#
# Disc length: 4634 seconds
#
# Revision: 0
# Processed by: cddbd v1.5.2PL0 Copyright (c) Steve Scherf et al.
# Submitted via: ExactAudioCopy v0.99pb5
#
DISCID=d212180e
DTITLE=Ласковый Май - Золотая Коллекция CD2
DYEAR=1900
DGENRE=Pop
TTITLE0=Метель в чужом городе
TTITLE1=Глупые снежинки
TTITLE2=Парк
TTITLE3=Дождь
TTITLE4=Всё напрасно
TTITLE5=Детство
TTITLE6=Вот и кончается лето
TTITLE7=Знаешь
TTITLE8=Рано ушедшая осень
TTITLE9=Я хочу
TTITLE10=Девочка моей мечты
TTITLE11=Кончилось всё
TTITLE12=Инструментальная пьесса
TTITLE13=Южная ночь
EXTD=
EXTT0=
EXTT1=
EXTT2=
EXTT3=
EXTT4=
EXTT5=
EXTT6=
EXTT7=
EXTT8=
EXTT9=
EXTT10=
EXTT11=
EXTT12=
EXTT13=
PLAYORDER=
